<svg width="37" height="39" xmlns="http://www.w3.org/2000/svg" fill="none">

 <g>
  <title>Layer 1</title>
  <path stroke="null" id="svg_1" fill="white" d="m35.41338,0.16701l-33.82673,0c-0.8135,0 -1.47073,0.69116 -1.47073,1.54664l0,35.57268c0,0.85549 0.65723,1.54666 1.47073,1.54666l33.82673,0c0.81349,0 1.47069,-0.69117 1.47069,-1.54666l0,-35.57268c0,-0.85548 -0.6572,-1.54664 -1.47069,-1.54664zm-4.24667,11.28555l-2.93689,0c-2.30264,0 -2.74842,1.15039 -2.74842,2.84204l0,3.72634l5.49684,0l-0.71695,5.83373l-4.77989,0l0,14.97832l-5.73133,0l0,-14.97339l-4.79361,0l0,-5.83866l4.79361,0l0,-4.30147c0,-4.99277 2.90009,-7.7139 7.13766,-7.7139c2.03147,0 3.77332,0.15949 4.28347,0.232l0,5.215l-0.00449,0z"/>
 </g>
</svg>