<svg width="32" height="34" xmlns="http://www.w3.org/2000/svg" fill="none">

 <g>
  <title>Layer 1</title>
  <path stroke="null" id="svg_1" fill="white" d="m28.08109,0.0556l-24.29294,0c-2.09229,0 -3.7882,1.79524 -3.7882,4.01114l0,25.80029c0,2.21495 1.69591,4.01108 3.7882,4.01108l24.29294,0c2.09233,0 3.78825,-1.79613 3.78825,-4.01108l0,-25.80029c0,-2.2159 -1.69592,-4.01114 -3.78825,-4.01114zm-5.1747,5.28422c0,-0.58304 0.44592,-1.0563 0.99533,-1.0563l2.98762,0c0.55023,0 0.99614,0.47325 0.99614,1.0563l0,3.17164c0,0.58303 -0.44592,1.05629 -0.99614,1.05629l-2.98762,0c-0.54941,0 -0.99533,-0.47325 -0.99533,-1.05629l0,-3.17164zm-6.93488,5.1777c3.38483,0 6.12906,2.90596 6.12906,6.48901c0,3.58399 -2.74422,6.48901 -6.12906,6.48901c-3.38402,0 -6.12825,-2.90502 -6.12825,-6.48901c0,-3.58305 2.74422,-6.48901 6.12825,-6.48901zm12.91032,19.13225c0,0.58301 -0.44592,1.05719 -0.99614,1.05719l-23.90183,0c-0.55024,0 -0.99616,-0.47418 -0.99616,-1.05719l0,-15.85457l3.98379,0c-0.51894,0.79252 -0.69454,2.27125 -0.69454,3.21039c0,5.65975 4.34978,10.26493 9.69477,10.26493c5.34591,0 9.69568,-4.60518 9.69568,-10.26493c0,-0.93914 -0.12607,-2.39484 -0.76932,-3.21039l3.98376,0l0,15.85457z" clip-rule="evenodd" fill-rule="evenodd"/>
 </g>
</svg>