<svg width="37" height="39" xmlns="http://www.w3.org/2000/svg" fill="none">

 <g>
  <title>Layer 1</title>
  <path stroke="null" id="svg_1" fill="white" d="m35.43069,0.10322l-33.86134,0c-0.81433,0 -1.47223,0.69344 -1.47223,1.55174l0,35.69005c0,0.85831 0.6579,1.55176 1.47223,1.55176l33.86134,0c0.81432,0 1.47219,-0.69345 1.47219,-1.55176l0,-35.69005c0,-0.8583 -0.65787,-1.55174 -1.47219,-1.55174zm-24.41609,33.05687l-5.46103,0l0,-18.51413l5.46103,0l0,18.51413zm-2.72826,-21.04545c-0.62604,0 -1.23796,-0.1956 -1.75849,-0.56218c-0.52052,-0.36658 -0.92623,-0.88775 -1.1658,-1.49733c-0.23957,-0.60958 -0.30225,-1.28038 -0.18013,-1.92759c0.12214,-0.64715 0.4236,-1.24161 0.86627,-1.70819c0.44268,-0.46658 1.00668,-0.78433 1.62071,-0.91306c0.61398,-0.12873 1.25042,-0.06266 1.82885,0.18986c0.5783,0.25251 1.07267,0.68013 1.42047,1.22877c0.3478,0.54864 0.53351,1.19365 0.53351,1.8535c-0.00462,1.84269 -1.42162,3.33624 -3.16538,3.33624zm23.17388,21.04545l-5.45651,0l0,-9.00495c0,-2.1482 -0.03671,-4.90728 -2.83863,-4.90728c-2.83863,0 -3.27563,2.33728 -3.27563,4.75218l0,9.16005l-5.45189,0l0,-18.51413l5.23564,0l0,2.53119l0.07354,0c0.72692,-1.45475 2.50751,-2.99193 5.16672,-2.99193c5.53005,0 6.54676,3.83579 6.54676,8.82068l0,10.15419z"/>
 </g>
</svg>