<svg width="412" height="224" viewBox="0 0 412 224" fill="none" xmlns="http://www.w3.org/2000/svg">
<path d="M467.035 81.6735C526 159 382.63 297 226.035 297C69.4391 297 0.534668 214.01 0.534668 111C0.534668 7.98952 52.4391 -63.5 209.035 -63.5C365.63 -63.5 467.035 -21.337 467.035 81.6735Z" fill="#DE3163"/>
<path d="M268.837 66.0072H244.758C242.734 66.0072 241.087 64.3667 241.087 62.3501V38.3597C241.087 36.3432 242.734 34.7026 244.758 34.7026H268.837C270.861 34.7026 272.508 36.3432 272.508 38.3597V62.3501C272.508 64.3667 270.861 66.0072 268.837 66.0072ZM244.758 35.2878C243.055 35.2878 241.674 36.6631 241.674 38.3597V62.3501C241.674 64.0467 243.055 65.4221 244.758 65.4221H261.625C267.311 65.4221 271.92 60.8296 271.92 55.1644V38.3597C271.92 36.6631 270.54 35.2878 268.837 35.2878H244.758Z" fill="#F2F2F2"/>
<path d="M268.837 66.0072H244.758C242.734 66.0072 241.087 64.3667 241.087 62.3501V38.3597C241.087 36.3432 242.734 34.7026 244.758 34.7026H268.837C270.861 34.7026 272.508 36.3432 272.508 38.3597V62.3501C272.508 64.3667 270.861 66.0072 268.837 66.0072Z" fill="#074EE8"/>
<path d="M256.651 29.4365C258.435 29.4365 259.881 27.9956 259.881 26.2182C259.881 24.4408 258.435 23 256.651 23C254.867 23 253.42 24.4408 253.42 26.2182C253.42 27.9956 254.867 29.4365 256.651 29.4365Z" fill="#F2F2F2"/>
<path d="M237.277 113.319H213.198C211.174 113.319 209.527 111.679 209.527 109.662V85.6717C209.527 83.6552 211.174 82.0146 213.198 82.0146H237.277C239.302 82.0146 240.948 83.6552 240.948 85.6717V109.662C240.948 111.679 239.302 113.319 237.277 113.319ZM213.198 82.5998C211.495 82.5998 210.115 83.9751 210.115 85.6717V109.662C210.115 111.359 211.495 112.734 213.198 112.734H213.198C228.2 112.734 240.361 100.618 240.361 85.6718V85.6717C240.361 83.9751 238.98 82.5998 237.277 82.5998H213.198V82.5998Z" fill="#F2F2F2"/>
<path d="M225.091 76.7485C226.875 76.7485 228.321 75.3076 228.321 73.5302C228.321 71.7529 226.875 70.312 225.091 70.312C223.307 70.312 221.861 71.7529 221.861 73.5302C221.861 75.3076 223.307 76.7485 225.091 76.7485Z" fill="#F2F2F2"/>
<path d="M226.076 96.051C224.993 96.3376 223.733 95.6067 223.505 94.4958C223.267 93.3416 224.293 92.0874 225.472 92.0789C226.67 92.0702 227.705 93.2719 227.51 94.4454C227.387 95.19 226.925 95.8388 226.506 96.4476C226.04 97.1261 225.552 97.79 225.049 98.4421C223.911 99.9173 222.697 101.332 221.486 102.748C221.228 103.049 221.409 103.462 221.798 103.497L228.688 104.125C229.252 104.177 229.249 103.299 228.688 103.247L221.798 102.619L222.109 103.368C223.443 101.809 224.776 100.247 226.018 98.6126C226.612 97.8309 227.212 97.0375 227.723 96.1984C228.173 95.4599 228.514 94.6174 228.384 93.7398C228.161 92.2269 226.651 91.0116 225.111 91.2323C223.582 91.4514 222.402 93.01 222.622 94.5344C222.864 96.2071 224.699 97.3238 226.31 96.8973C226.857 96.7524 226.625 95.9055 226.076 96.0509V96.051Z" fill="#F2F2F2"/>
<path d="M292.329 142.66H268.25C266.226 142.66 264.579 141.019 264.579 139.002V115.012C264.579 112.996 266.226 111.355 268.25 111.355H292.329C294.353 111.355 296 112.996 296 115.012V139.002C296 141.019 294.353 142.66 292.329 142.66ZM268.25 111.94C266.547 111.94 265.166 113.315 265.166 115.012V139.002C265.166 140.699 266.547 142.074 268.25 142.074H268.25C283.251 142.074 295.413 129.958 295.413 115.012V115.012C295.413 113.315 294.032 111.94 292.329 111.94H268.25Z" fill="#F2F2F2"/>
<path d="M280.143 106.089C281.927 106.089 283.373 104.648 283.373 102.871C283.373 101.093 281.927 99.6523 280.143 99.6523C278.359 99.6523 276.913 101.093 276.913 102.871C276.913 104.648 278.359 106.089 280.143 106.089Z" fill="#F2F2F2"/>
<path d="M277.614 121.876C279.122 121.113 281.127 121.672 281.677 123.356C281.913 124.078 281.835 124.878 281.36 125.489C280.872 126.115 280.113 126.452 279.323 126.374V127.251C280.309 127.315 281.297 127.669 281.99 128.391C282.621 129.048 282.938 130.044 282.683 130.932C282.436 131.793 281.608 132.433 280.712 132.479C279.819 132.525 278.934 131.955 278.599 131.129C278.389 130.612 277.536 130.838 277.749 131.362C278.499 133.212 280.787 133.969 282.43 132.739C284.107 131.484 283.936 129.015 282.49 127.648C281.634 126.839 280.485 126.449 279.323 126.374C278.751 126.337 278.768 127.196 279.323 127.251C280.372 127.356 281.407 126.849 282.046 126.028C282.687 125.204 282.849 124.112 282.527 123.123C281.797 120.879 279.194 120.093 277.17 121.119C276.664 121.375 277.11 122.132 277.614 121.876V121.876Z" fill="#F2F2F2"/>
<path d="M146.384 144.707H122.304C120.28 144.707 118.634 143.067 118.634 141.05V117.06C118.634 115.043 120.28 113.403 122.304 113.403H146.384C148.408 113.403 150.055 115.043 150.055 117.06V141.05C150.055 143.067 148.408 144.707 146.384 144.707V144.707Z" fill="#3F3D56"/>
<path d="M137.296 117.368C138.766 116.603 139.335 114.796 138.567 113.332C138.49 113.185 138.399 113.049 138.302 112.921L142.293 86.1943L136.393 86.232L133.931 112.469C132.911 113.357 132.59 114.854 133.246 116.103C134.013 117.567 135.827 118.133 137.296 117.368H137.296Z" fill="#FFB6B6"/>
<path d="M138.263 67.5399C138.263 67.5399 136.499 67.0619 136.243 70.9112C136.038 73.9928 132.955 92.7682 133.817 96.9693C132.716 97.4748 132.052 98.6719 132.281 99.9148L141.19 99.1171C142.412 97.5063 142.419 95.7019 141.718 95.325L142.434 89.7925L146.569 71.7705L139.543 67.8629L138.263 67.5399V67.5399Z" fill="#E6E6E6"/>
<path d="M144.106 185.871L147.491 185.871L149.102 172.86L144.105 172.86L144.106 185.871Z" fill="#FFB6B6"/>
<path d="M148.618 186.174V183.888L147.728 183.942L144.105 184.156L143.266 184.207L142.625 191.866L142.591 192.276H144.995L145.072 191.869L145.421 190.015L146.323 191.869L146.52 192.276H152.894C153.274 192.276 153.621 192.128 153.875 191.883C154.153 191.623 154.325 191.256 154.325 190.848C154.594 189.596 149.293 186.89 148.618 186.174H148.618Z" fill="#2F2E41"/>
<path d="M129.24 181.996L133.023 182.741L136.546 170.746L132.749 169.464L129.24 181.996Z" fill="#FFB6B6"/>
<path d="M133.504 183.497L134.121 181.295L133.249 181.109L129.702 180.344L128.88 180.169L126.197 187.374L126.053 187.761L128.368 188.404L128.553 188.032L129.389 186.341L129.757 188.367L129.838 188.813L135.976 190.52C136.343 190.622 136.717 190.571 137.028 190.404C137.366 190.228 137.63 189.92 137.74 189.527C138.337 188.393 133.962 184.368 133.504 183.497V183.497Z" fill="#2F2E41"/>
<path d="M160.874 112.546L160.961 111.633L157.195 101.347L141.147 104.43C141.147 104.43 132.876 114.582 134.715 121.301C135.214 123.123 136.28 144.602 135.959 145.293C128.567 161.2 130.632 172.421 130.632 172.421C130.632 172.421 132.968 174.451 136.971 175.457C138.015 175.72 145.955 140.033 145.955 140.033C145.955 140.033 145.606 142.26 145.118 145.646C143.611 156.107 141.244 177.165 143.347 178.256C146.131 179.699 148.794 179.431 148.794 179.431C148.794 179.431 157.473 153.449 155.634 147.341" fill="#2F2E41"/>
<path d="M152.991 68.3478L148.035 63.0369L144.267 62.8186L139.19 68.0552L137.307 73.3452V73.3452C135.2 78.4453 134.718 84.0676 135.926 89.4498L138.818 102.326C138.818 102.326 139.264 103.844 138.096 104.026C136.929 104.208 137.069 106.445 137.069 106.445C137.069 106.445 137.307 108.383 136.174 108.554C135.04 108.725 132.018 108.725 134.663 112.112C137.307 115.5 158.223 102.688 158.223 102.688L158.324 86.8069C158.324 86.8069 164.216 78.9232 157.871 74.4081L152.991 68.3478V68.3478Z" fill="#E6E6E6"/>
<path d="M165.471 124.228H141.392C139.368 124.228 137.721 122.587 137.721 120.571V96.5804C137.721 94.5639 139.368 92.9233 141.392 92.9233H165.471C167.495 92.9233 169.142 94.5639 169.142 96.5804V120.571C169.142 122.587 167.495 124.228 165.471 124.228Z" fill="#074EE8"/>
<path d="M161.815 112.429C162.924 111.202 162.825 109.311 161.592 108.205C161.468 108.094 161.336 107.999 161.2 107.912L155.585 81.4766L150.068 83.562L156.945 109.007C156.3 110.194 156.524 111.708 157.575 112.651C158.807 113.756 160.705 113.657 161.815 112.429H161.815Z" fill="#FFB6B6"/>
<path d="M150.677 68.2089C150.677 68.2089 152.342 67.458 153.208 71.2179C153.902 74.228 159.937 92.2778 159.755 96.5619C160.923 96.8868 161.769 97.9637 161.742 99.227L152.818 99.8486C151.355 98.4516 151.061 96.6711 151.693 96.1881L150.105 90.839L143.15 73.6997L149.464 68.7304L150.677 68.2089V68.2089Z" fill="#E6E6E6"/>
<path d="M159.682 187.708C160.288 187.745 160.624 186.994 160.165 186.557L160.119 186.376C160.125 186.361 160.131 186.347 160.137 186.333C160.751 184.875 162.83 184.885 163.438 186.345C163.978 187.64 164.666 188.938 164.835 190.308C164.911 190.913 164.877 191.529 164.742 192.122C166.007 189.369 166.673 186.362 166.673 183.339C166.673 182.579 166.631 181.82 166.546 181.062C166.475 180.442 166.379 179.826 166.254 179.216C165.576 175.916 164.11 172.774 161.996 170.149C160.979 169.595 160.131 168.73 159.619 167.693C159.435 167.318 159.291 166.916 159.223 166.506C159.338 166.521 159.659 164.765 159.572 164.658C159.733 164.414 160.021 164.293 160.198 164.055C161.073 162.872 162.28 163.079 162.91 164.686C164.255 165.363 164.268 166.485 163.443 167.564C162.917 168.251 162.845 169.18 162.384 169.915C162.432 169.975 162.481 170.034 162.529 170.094C163.398 171.205 164.15 172.4 164.784 173.654C164.605 172.26 164.869 170.58 165.32 169.497C165.834 168.263 166.796 167.224 167.643 166.158C168.661 164.876 170.748 165.435 170.928 167.06C170.929 167.075 170.931 167.091 170.933 167.107C170.807 167.177 170.683 167.253 170.563 167.332C169.876 167.785 170.113 168.846 170.927 168.971L170.946 168.974C170.9 169.425 170.823 169.873 170.709 170.313C171.796 174.502 169.449 176.027 166.098 176.096C166.024 176.134 165.952 176.171 165.878 176.207C166.218 177.16 166.489 178.137 166.69 179.127C166.87 180.002 166.995 180.886 167.065 181.774C167.153 182.895 167.145 184.021 167.05 185.14L167.056 185.1C167.297 183.868 167.968 182.717 168.943 181.92C170.395 180.731 172.447 180.293 174.014 179.338C174.768 178.878 175.735 179.472 175.603 180.344L175.597 180.385C175.363 180.48 175.136 180.589 174.916 180.712C174.79 180.783 174.666 180.858 174.546 180.937C173.859 181.39 174.096 182.451 174.91 182.576L174.929 182.579C174.942 182.581 174.954 182.583 174.967 182.585C174.567 183.532 174.009 184.41 173.311 185.168C172.631 188.824 169.712 189.171 166.589 188.106H166.587C166.246 189.588 165.747 191.035 165.106 192.415H159.814C159.795 192.356 159.778 192.296 159.761 192.237C160.251 192.267 160.744 192.239 161.226 192.15C160.833 191.67 160.44 191.186 160.048 190.707C160.038 190.697 160.031 190.688 160.023 190.678C159.824 190.433 159.623 190.189 159.424 189.943L159.424 189.943C159.411 189.189 159.502 188.437 159.682 187.708L159.682 187.708V187.708Z" fill="#F2F2F2"/>
<path d="M118.087 188.293C117.48 188.331 117.145 187.58 117.604 187.142L117.649 186.961C117.643 186.947 117.637 186.932 117.631 186.918C117.018 185.46 114.938 185.47 114.33 186.93C113.79 188.225 113.103 189.523 112.934 190.893C112.858 191.498 112.892 192.114 113.026 192.707C111.761 189.954 111.096 186.947 111.096 183.924C111.096 183.164 111.137 182.405 111.223 181.647C111.293 181.027 111.39 180.411 111.515 179.801C112.192 176.501 113.658 173.359 115.773 170.734C116.789 170.181 117.637 169.315 118.149 168.278C118.333 167.904 118.477 167.501 118.546 167.091C118.43 167.106 118.109 165.351 118.197 165.243C118.036 164.999 117.747 164.878 117.571 164.64C116.695 163.457 115.489 163.664 114.859 165.271C113.513 165.948 113.5 167.07 114.326 168.149C114.851 168.836 114.923 169.765 115.384 170.5C115.337 170.56 115.287 170.619 115.24 170.679C114.37 171.791 113.618 172.985 112.984 174.24C113.163 172.845 112.899 171.165 112.448 170.082C111.935 168.849 110.972 167.809 110.125 166.743C109.107 165.462 107.02 166.021 106.841 167.645C106.839 167.661 106.837 167.676 106.836 167.692C106.962 167.763 107.085 167.838 107.205 167.917C107.892 168.37 107.655 169.431 106.841 169.556L106.822 169.559C106.868 170.011 106.946 170.458 107.06 170.899C105.973 175.087 108.319 176.612 111.67 176.681C111.744 176.719 111.816 176.757 111.89 176.792C111.551 177.745 111.28 178.722 111.079 179.712C110.898 180.587 110.773 181.471 110.703 182.359C110.616 183.48 110.623 184.606 110.718 185.725L110.713 185.685C110.472 184.453 109.8 183.302 108.825 182.505C107.373 181.316 105.321 180.879 103.754 179.923C103 179.463 102.034 180.058 102.165 180.929L102.172 180.971C102.405 181.065 102.633 181.175 102.853 181.297C102.979 181.368 103.102 181.443 103.222 181.523C103.909 181.975 103.672 183.036 102.858 183.162L102.839 183.164C102.826 183.166 102.815 183.168 102.802 183.17C103.202 184.117 103.759 184.995 104.457 185.753C105.137 189.409 108.056 189.756 111.179 188.692H111.181C111.522 190.173 112.021 191.621 112.662 193H117.954C117.973 192.941 117.99 192.881 118.007 192.822C117.518 192.853 117.025 192.824 116.543 192.735C116.935 192.255 117.328 191.772 117.721 191.292C117.73 191.282 117.738 191.273 117.745 191.263C117.944 191.018 118.146 190.774 118.345 190.528L118.345 190.528C118.357 189.774 118.267 189.022 118.087 188.293L118.087 188.293V188.293Z" fill="#F2F2F2"/>
<path d="M100 192.534C100 192.727 100.156 192.882 100.349 192.882H174.729C174.922 192.882 175.078 192.727 175.078 192.534C175.078 192.341 174.922 192.186 174.729 192.186H100.349C100.156 192.186 100 192.341 100 192.534Z" fill="#CCCCCC"/>
<path d="M148.008 59.3465C151.971 59.3465 155.184 56.1457 155.184 52.1973C155.184 48.2489 151.971 45.0481 148.008 45.0481C144.045 45.0481 140.833 48.2489 140.833 52.1973C140.833 56.1457 144.045 59.3465 148.008 59.3465Z" fill="#FFB6B6"/>
<path d="M154.72 51.9182C154.741 51.9182 154.791 51.9182 154.885 51.9211C155.158 51.9387 154.788 51.9241 154.72 51.9182Z" fill="#2F2E41"/>
<path d="M158.54 51.2366C158.488 51.3653 158.314 51.4706 158.071 51.5555C157.607 50.9674 157.005 50.4905 156.318 50.195C156.626 50.6953 156.878 51.2278 157.066 51.7837C156.4 51.8802 155.657 51.9212 155.178 51.9241C155.064 51.9241 154.964 51.9241 154.885 51.9212C154.767 51.7134 154.579 51.377 154.418 51.0288C154.403 51.9797 153.073 54.7825 153.181 57.1522C153.313 59.9872 153.463 63.0796 153.463 63.0796C152.985 63.1996 152.406 63.2844 151.745 63.3371C151.017 62.0059 150.477 60.5167 150.186 59.0071C150.154 58.8462 150.127 58.6853 150.101 58.5244C150.039 58.7087 149.981 58.8959 149.931 59.0861C149.71 59.876 149.581 60.7274 149.54 61.611C149.511 62.1932 149.522 62.7841 149.566 63.3839C145.943 64.1182 141.462 64.0422 138.22 62.2487C138.328 61.9533 138.411 61.649 138.463 61.3389C138.64 60.3207 137.218 60.1774 136.273 60.8005C135.327 59.8556 134.611 58.656 134.223 57.1552C140.402 54.4548 133.897 51.1312 138.669 46.3419C138.093 42.1816 149.622 40.9792 151.854 44.6772C152.341 44.3086 153.86 44.3262 154.506 44.5953C155.152 44.8645 155.651 45.318 156.138 45.7568C156.464 46.0552 156.312 46.6491 156.103 47.0938C157.128 46.6052 159.416 49.1447 158.54 51.2366V51.2366Z" fill="#2F2E41"/>
</svg>
