<svg width="196" height="216" viewBox="0 0 196 216" fill="none" xmlns="http://www.w3.org/2000/svg">
<g clip-path="url(#clip0_977_6985)">
<path d="M168.837 43.516H144.758C142.734 43.516 141.087 41.7175 141.087 39.507V13.2078C141.087 10.9972 142.734 9.19882 144.758 9.19882H168.837C170.861 9.19882 172.508 10.9972 172.508 13.2078V39.507C172.508 41.7175 170.861 43.516 168.837 43.516ZM144.758 9.84026C143.055 9.84026 141.674 11.348 141.674 13.2078V39.507C141.674 41.3668 143.055 42.8745 144.758 42.8745H161.625C167.311 42.8745 171.92 37.8401 171.92 31.6297V13.2078C171.92 11.348 170.54 9.84026 168.837 9.84026H144.758Z" fill="#F2F2F2"/>
<path d="M168.837 43.516H144.758C142.734 43.516 141.087 41.7175 141.087 39.507V13.2078C141.087 10.9972 142.734 9.19882 144.758 9.19882H168.837C170.861 9.19882 172.508 10.9972 172.508 13.2078V39.507C172.508 41.7175 170.861 43.516 168.837 43.516Z" fill="#074EE8"/>
<path d="M156.65 3.42583C158.434 3.42583 159.88 1.84632 159.88 -0.102105C159.88 -2.05053 158.434 -3.63004 156.65 -3.63004C154.866 -3.63004 153.42 -2.05053 153.42 -0.102105C153.42 1.84632 154.866 3.42583 156.65 3.42583Z" fill="#F2F2F2"/>
<path d="M137.277 95.381H113.198C111.174 95.381 109.527 93.5826 109.527 91.372V65.0729C109.527 62.8623 111.174 61.0639 113.198 61.0639H137.277C139.302 61.0639 140.948 62.8623 140.948 65.0729V91.372C140.948 93.5826 139.302 95.381 137.277 95.381ZM113.198 61.7053C111.495 61.7053 110.115 63.213 110.115 65.0729V91.372C110.115 93.2319 111.495 94.7396 113.198 94.7396H113.198C128.2 94.7396 140.361 81.4574 140.361 65.0729V65.0729C140.361 63.213 138.98 61.7053 137.277 61.7053H113.198Z" fill="#F2F2F2"/>
<path d="M125.092 55.2909C126.875 55.2909 128.322 53.7114 128.322 51.763C128.322 49.8146 126.875 48.235 125.092 48.235C123.308 48.235 121.861 49.8146 121.861 51.763C121.861 53.7114 123.308 55.2909 125.092 55.2909Z" fill="#F2F2F2"/>
<path d="M126.075 76.4509C124.993 76.7652 123.733 75.964 123.504 74.7462C123.267 73.4809 124.292 72.106 125.472 72.0966C126.669 72.0871 127.704 73.4045 127.51 74.6909C127.386 75.5071 126.925 76.2183 126.506 76.8858C126.039 77.6296 125.551 78.3573 125.048 79.0722C123.911 80.6894 122.697 82.2406 121.486 83.7923C121.228 84.1226 121.408 84.5747 121.797 84.6136L128.687 85.3021C129.252 85.3585 129.248 84.396 128.687 84.3399L121.797 83.6514L122.109 84.4726C123.443 82.763 124.775 81.0505 126.018 79.2592C126.612 78.4022 127.212 77.5325 127.723 76.6125C128.173 75.8031 128.514 74.8795 128.384 73.9174C128.16 72.2589 126.65 70.9267 125.11 71.1685C123.581 71.4087 122.401 73.1174 122.622 74.7885C122.864 76.6222 124.698 77.8463 126.309 77.3787C126.857 77.2199 126.624 76.2915 126.075 76.4509V76.4509Z" fill="#F2F2F2"/>
<path d="M192.329 127.545H168.25C166.226 127.545 164.579 125.746 164.579 123.536V97.2367C164.579 95.0261 166.226 93.2277 168.25 93.2277H192.329C194.353 93.2277 196 95.0261 196 97.2367V123.536C196 125.746 194.353 127.545 192.329 127.545ZM168.25 93.8692C166.547 93.8692 165.166 95.3769 165.166 97.2367V123.536C165.166 125.396 166.547 126.903 168.25 126.903H168.25C183.251 126.903 195.413 113.621 195.413 97.2368V97.2367C195.413 95.3769 194.032 93.8692 192.329 93.8692H168.25Z" fill="#F2F2F2"/>
<path d="M180.142 87.4548C181.926 87.4548 183.372 85.8752 183.372 83.9268C183.372 81.9784 181.926 80.3989 180.142 80.3989C178.358 80.3989 176.912 81.9784 176.912 83.9268C176.912 85.8752 178.358 87.4548 180.142 87.4548Z" fill="#F2F2F2"/>
<path d="M177.614 104.762C179.122 103.925 181.127 104.537 181.677 106.384C181.913 107.175 181.835 108.052 181.36 108.722C180.872 109.408 180.113 109.778 179.323 109.692V110.654C180.309 110.724 181.297 111.112 181.99 111.904C182.621 112.623 182.938 113.716 182.683 114.689C182.436 115.633 181.608 116.334 180.712 116.385C179.819 116.436 178.934 115.81 178.599 114.904C178.389 114.338 177.536 114.585 177.749 115.16C178.499 117.188 180.787 118.018 182.43 116.67C184.107 115.294 183.936 112.587 182.49 111.089C181.634 110.201 180.485 109.774 179.323 109.692C178.751 109.651 178.768 110.593 179.323 110.654C180.372 110.769 181.407 110.213 182.046 109.313C182.687 108.409 182.849 107.212 182.527 106.128C181.797 103.669 179.194 102.807 177.17 103.931C176.664 104.212 177.11 105.042 177.614 104.762Z" fill="#F2F2F2"/>
<path d="M46.3839 129.79H22.3044C20.2804 129.79 18.6338 127.991 18.6338 125.781V99.4817C18.6338 97.2711 20.2804 95.4727 22.3044 95.4727H46.3839C48.408 95.4727 50.0546 97.2711 50.0546 99.4817V125.781C50.0546 127.991 48.408 129.79 46.3839 129.79Z" fill="#3F3D56"/>
<path d="M37.2964 99.8198C38.7658 98.9812 39.3346 97.0004 38.5668 95.3955C38.4895 95.234 38.3991 95.0853 38.3021 94.9442L42.2932 65.6458L36.393 65.6871L33.931 94.4489C32.9108 95.4225 32.5904 97.0631 33.2456 98.4324C34.0133 100.037 35.827 100.658 37.2965 99.8198H37.2964Z" fill="#FFB6B6"/>
<path d="M38.263 45.1962C38.263 45.1962 36.4996 44.6721 36.2432 48.8918C36.038 52.27 32.956 72.8523 33.8177 77.4577C32.7166 78.0118 32.0527 79.3241 32.2812 80.6866L41.1905 79.8121C42.4127 78.0463 42.419 76.0683 41.7187 75.6551L42.4341 69.5902L46.5696 49.8339L39.5439 45.5502L38.263 45.1962Z" fill="#E6E6E6"/>
<path d="M44.1061 174.915L47.4917 174.914L49.1024 160.651L44.1055 160.652L44.1061 174.915Z" fill="#FFB6B6"/>
<path d="M48.618 175.247V172.741L47.7279 172.8L44.1048 173.034L43.2662 173.091L42.6252 181.486L42.5908 181.936H44.9948L45.0721 181.489L45.4212 179.458L46.3227 181.489L46.5202 181.936H52.8937C53.2743 181.936 53.6206 181.774 53.8753 181.505C54.1529 181.221 54.3247 180.817 54.3247 180.37C54.5937 178.998 49.2934 176.032 48.618 175.247H48.618Z" fill="#2F2E41"/>
<path d="M29.2402 170.667L33.0231 171.483L36.5469 158.334L32.7497 156.929L29.2402 170.667Z" fill="#FFB6B6"/>
<path d="M33.5043 172.313L34.1212 169.898L33.2493 169.694L29.7017 168.856L28.8802 168.664L26.1966 176.563L26.0527 176.986L28.3683 177.692L28.5527 177.284L29.389 175.43L29.7573 177.651L29.8375 178.14L35.9765 180.011C36.3431 180.122 36.7167 180.067 37.0281 179.883C37.3655 179.691 37.6302 179.353 37.7402 178.922C38.337 177.68 33.9618 173.267 33.5043 172.313Z" fill="#2F2E41"/>
<path d="M60.8745 94.5333L60.9617 93.5329L57.1959 82.2571L41.1476 85.6368C41.1476 85.6368 32.8765 96.7653 34.7158 104.131C35.2146 106.129 36.2807 129.674 35.9597 130.431C28.5673 147.869 30.6325 160.17 30.6325 160.17C30.6325 160.17 32.9689 162.396 36.9711 163.499C38.0153 163.786 45.9558 124.666 45.9558 124.666C45.9558 124.666 45.6061 127.107 45.1183 130.819C43.6113 142.286 41.2442 165.371 43.3474 166.567C46.1312 168.149 48.7944 167.855 48.7944 167.855C48.7944 167.855 57.4737 139.373 55.6344 132.676" fill="#2F2E41"/>
<path d="M52.9914 46.0818L48.0348 40.2598L44.2669 40.0205L39.1897 45.7611L37.3071 51.5602V51.5602C35.1998 57.151 34.7178 63.3144 35.9265 69.2146L38.8182 83.3303C38.8182 83.3303 39.2636 84.9937 38.0965 85.1935C36.9294 85.3933 37.0693 87.8452 37.0693 87.8452C37.0693 87.8452 37.307 89.9702 36.1736 90.1574C35.0403 90.3445 32.0183 90.3445 34.6627 94.0579C37.3071 97.7713 58.223 83.7266 58.223 83.7266L58.3244 66.3173C58.3244 66.3173 64.2158 57.6749 57.8712 52.7253L52.9914 46.0818Z" fill="#E6E6E6"/>
<path d="M65.4708 107.339H41.3914C39.3673 107.339 37.7207 105.541 37.7207 103.33V77.0314C37.7207 74.8208 39.3673 73.0223 41.3914 73.0223H65.4708C67.4949 73.0223 69.1415 74.8208 69.1415 77.0314V103.33C69.1415 105.541 67.4949 107.339 65.4708 107.339Z" fill="#074EE8"/>
<path d="M61.8147 94.4055C62.924 93.0598 62.8245 90.9867 61.5925 89.7751C61.4685 89.6532 61.3362 89.5482 61.2002 89.453L55.5849 60.474L50.0684 62.7601L56.9454 90.6538C56.3002 91.9549 56.5238 93.6145 57.5751 94.6483C58.8072 95.8599 60.7053 95.7512 61.8147 94.4055H61.8147Z" fill="#FFB6B6"/>
<path d="M50.6775 45.9295C50.6775 45.9295 52.3424 45.1063 53.2088 49.2281C53.9025 52.5278 59.9373 72.3147 59.756 77.0111C60.9237 77.3672 61.7699 78.5478 61.7423 79.9326L52.8189 80.6141C51.3556 79.0826 51.0618 77.1308 51.6932 76.6013L50.1052 70.7374L43.1504 51.9487L49.4643 46.5012L50.6775 45.9295V45.9295Z" fill="#E6E6E6"/>
<path d="M59.6818 176.928C60.2885 176.97 60.6238 176.146 60.1648 175.667L60.1191 175.468C60.1251 175.452 60.1312 175.437 60.1373 175.421C60.7508 173.823 62.83 173.834 63.4383 175.434C63.9782 176.854 64.6656 178.277 64.8349 179.779C64.9107 180.441 64.8766 181.117 64.7419 181.767C66.007 178.749 66.6727 175.453 66.6727 172.139C66.6727 171.306 66.631 170.473 66.5457 169.643C66.4755 168.963 66.3788 168.288 66.2536 167.619C65.5765 164.002 64.1103 160.557 61.9956 157.68C60.979 157.073 60.1312 156.124 59.6191 154.987C59.4351 154.577 59.2909 154.136 59.2227 153.686C59.3383 153.703 59.6589 151.778 59.5716 151.66C59.7329 151.393 60.0214 151.26 60.1975 150.999C61.0733 149.702 62.2799 149.929 62.9098 151.691C64.2554 152.433 64.2684 153.663 63.4427 154.846C62.9175 155.599 62.8453 156.617 62.3844 157.423C62.4318 157.489 62.4811 157.553 62.5285 157.62C63.3981 158.838 64.1501 160.147 64.7841 161.523C64.6049 159.994 64.8695 158.152 65.3204 156.965C65.8338 155.613 66.796 154.473 67.6433 153.304C68.6611 151.9 70.7482 152.513 70.9276 154.293C70.9293 154.31 70.931 154.328 70.9326 154.345C70.8068 154.422 70.6835 154.505 70.563 154.592C69.876 155.088 70.1135 156.251 70.9275 156.388L70.9459 156.391C70.9004 156.886 70.8226 157.377 70.7088 157.86C71.7959 162.451 69.449 164.124 66.0981 164.199C66.0241 164.24 65.952 164.282 65.878 164.321C66.2175 165.365 66.4888 166.436 66.6898 167.522C66.87 168.481 66.9952 169.45 67.0654 170.424C67.1526 171.652 67.145 172.887 67.0502 174.113L67.0559 174.07C67.2967 172.719 67.9682 171.457 68.9431 170.583C70.3953 169.28 72.4472 168.8 74.0139 167.753C74.7681 167.249 75.7346 167.9 75.6029 168.855L75.5965 168.901C75.3632 169.005 75.1356 169.125 74.9156 169.259C74.7898 169.337 74.6665 169.419 74.546 169.506C73.859 170.003 74.0965 171.166 74.9105 171.303L74.9289 171.306C74.9422 171.308 74.9536 171.31 74.9668 171.312C74.5666 172.35 74.009 173.313 73.3111 174.144C72.6314 178.152 69.712 178.532 66.5893 177.365H66.5874C66.246 178.989 65.7472 180.576 65.1061 182.088H59.8144C59.7954 182.024 59.7784 181.958 59.7613 181.894C60.2506 181.927 60.7438 181.896 61.2255 181.798C60.8329 181.272 60.4403 180.742 60.0477 180.216C60.0382 180.205 60.0306 180.195 60.023 180.185C59.8239 179.915 59.6229 179.648 59.4237 179.379L59.4236 179.378C59.4111 178.552 59.5019 177.728 59.6816 176.928L59.6818 176.928Z" fill="#F2F2F2"/>
<path d="M18.0866 177.57C17.4799 177.611 17.1446 176.788 17.6036 176.308L17.6493 176.11C17.6433 176.094 17.6372 176.078 17.6311 176.062C17.0176 174.464 14.9384 174.476 14.3301 176.076C13.7902 177.496 13.1028 178.918 12.9335 180.42C12.8576 181.083 12.8918 181.758 13.0264 182.409C11.7614 179.391 11.0956 176.095 11.0956 172.78C11.0956 171.948 11.1374 171.115 11.2227 170.284C11.2929 169.605 11.3896 168.93 11.5148 168.26C12.1919 164.644 13.658 161.199 15.7728 158.321C16.7894 157.714 17.6372 156.766 18.1493 155.628C18.3333 155.218 18.4775 154.777 18.5457 154.328C18.43 154.344 18.1095 152.42 18.1968 152.302C18.0355 152.034 17.7469 151.902 17.5708 151.641C16.6951 150.344 15.4885 150.57 14.8586 152.333C13.513 153.074 13.5 154.305 14.3257 155.488C14.8509 156.24 14.9231 157.259 15.384 158.065C15.3366 158.131 15.2873 158.195 15.2398 158.261C14.3703 159.479 13.6183 160.789 12.9843 162.164C13.1635 160.635 12.8989 158.794 12.448 157.607C11.9346 156.254 10.9724 155.115 10.125 153.946C9.10723 152.541 7.02014 153.154 6.84082 154.935C6.83909 154.952 6.8374 154.969 6.83574 154.986C6.9616 155.064 7.0849 155.146 7.20534 155.233C7.89234 155.729 7.65491 156.893 6.8409 157.03L6.82247 157.033C6.86799 157.528 6.94575 158.019 7.05954 158.502C5.97251 163.093 8.31935 164.765 11.6703 164.84C11.7443 164.882 11.8164 164.923 11.8903 164.963C11.5508 166.007 11.2796 167.078 11.0786 168.163C10.8984 169.122 10.7732 170.092 10.703 171.065C10.6158 172.294 10.6234 173.528 10.7182 174.755L10.7125 174.711C10.4717 173.36 9.80023 172.099 8.82533 171.225C7.37304 169.922 5.32123 169.442 3.75447 168.395C3.00027 167.89 2.03383 168.542 2.16545 169.497L2.17186 169.543C2.40515 169.646 2.63274 169.766 2.85275 169.901C2.97861 169.979 3.10191 170.061 3.22236 170.148C3.90935 170.644 3.67193 171.807 2.85791 171.945L2.83947 171.948C2.82619 171.95 2.81481 171.952 2.80155 171.954C3.20175 172.992 3.75935 173.955 4.45732 174.786C5.13702 178.794 8.05634 179.174 11.1791 178.007H11.181C11.5224 179.631 12.0212 181.218 12.6623 182.73H17.954C17.9729 182.666 17.99 182.599 18.0071 182.535C17.5177 182.568 17.0246 182.537 16.5428 182.44C16.9355 181.914 17.3281 181.383 17.7207 180.857C17.7302 180.847 17.7378 180.836 17.7453 180.826C17.9445 180.557 18.1455 180.29 18.3447 180.02L18.3448 180.02C18.3572 179.193 18.2665 178.369 18.0867 177.57L18.0866 177.57Z" fill="#F2F2F2"/>
<path d="M0 182.219C0 182.431 0.155645 182.601 0.349464 182.601H74.7287C74.9225 182.601 75.0781 182.431 75.0781 182.219C75.0781 182.008 74.9225 181.838 74.7287 181.838H0.349464C0.155645 181.838 0 182.008 0 182.219Z" fill="#CCCCCC"/>
<path d="M48.0078 36.2143C51.9708 36.2143 55.1835 32.7054 55.1835 28.3771C55.1835 24.0487 51.9708 20.5399 48.0078 20.5399C44.0447 20.5399 40.832 24.0487 40.832 28.3771C40.832 32.7054 44.0447 36.2143 48.0078 36.2143Z" fill="#FFB6B6"/>
<path d="M54.7197 28.0712C54.7403 28.0712 54.7902 28.0712 54.8842 28.0744C55.1573 28.0935 54.7873 28.0775 54.7197 28.0712Z" fill="#2F2E41"/>
<path d="M58.54 27.3239C58.4872 27.465 58.3139 27.5804 58.0702 27.6735C57.6062 27.0288 57.0042 26.506 56.3171 26.1821C56.6254 26.7305 56.8779 27.3142 57.0659 27.9236C56.3993 28.0295 55.6563 28.0744 55.1777 28.0776C55.0632 28.0776 54.9633 28.0776 54.884 28.0744C54.7666 27.8467 54.5786 27.4778 54.4171 27.0962C54.4025 28.1385 53.0722 31.211 53.1808 33.8088C53.313 36.9166 53.4628 40.3067 53.4628 40.3067C52.9841 40.4382 52.4056 40.5312 51.7449 40.5889C51.0166 39.1296 50.4763 37.4971 50.1856 35.8422C50.1533 35.6658 50.1269 35.4894 50.1004 35.313C50.0388 35.5151 49.98 35.7203 49.9301 35.9288C49.7099 36.7948 49.5807 37.7281 49.5395 38.6966C49.5102 39.3349 49.5219 39.9827 49.566 40.6402C45.9423 41.4452 41.4612 41.3618 38.2193 39.3958C38.3279 39.0719 38.4101 38.7383 38.463 38.3984C38.6392 37.2822 37.2179 37.1251 36.2723 37.8082C35.3268 36.7723 34.6103 35.4573 34.2227 33.812C40.4011 30.8518 33.8967 27.2084 38.6686 21.9582C38.093 17.3976 49.6218 16.0794 51.8535 20.1333C52.341 19.7292 53.8592 19.7484 54.5052 20.0435C55.1513 20.3386 55.6505 20.8357 56.1379 21.3168C56.4639 21.6439 56.3112 22.295 56.1027 22.7825C57.1275 22.2469 59.4151 25.0307 58.54 27.3239V27.3239Z" fill="#2F2E41"/>
</g>
<defs>
<clipPath id="clip0_977_6985">
<rect width="196" height="215.479" fill="white" transform="translate(0 0.30957)"/>
</clipPath>
</defs>
</svg>
